<svg xmlns="http://www.w3.org/2000/svg" xmlns:xlink="http://www.w3.org/1999/xlink" width="500" zoomAndPan="magnify" viewBox="0 0 375 374.999991" height="500" preserveAspectRatio="xMidYMid meet" version="1.0"><defs><clipPath id="2473abf1c3"><path d="M 52 46.3125 L 337 46.3125 L 337 327 L 52 327 Z M 52 46.3125 " clip-rule="nonzero"/></clipPath></defs><g clip-path="url(#2473abf1c3)"><path fill="#ffffff" d="M 83.273438 49.394531 C 83.273438 49.394531 37.449219 100.585938 57.816406 144.726562 C 76.816406 185.902344 134.238281 281.464844 230.640625 320.570312 C 244.710938 326.289062 260.148438 328.535156 275.097656 325.816406 C 286.289062 323.78125 317.203125 317.042969 327.359375 304.921875 C 328.429688 303.640625 330.429688 302.148438 332.449219 299.0625 C 334.21875 296.34375 337.480469 292.761719 336.253906 286.65625 C 334.605469 278.449219 299.886719 246.414062 286.464844 234.289062 C 282.515625 230.726562 277.449219 228.570312 272.148438 228.570312 C 268.691406 228.570312 265.550781 229.359375 264.273438 231.640625 C 254.902344 248.289062 245.027344 259.308594 236.65625 263.691406 C 225.691406 269.449219 157.449219 222.027344 129.902344 166.414062 C 125.640625 157.816406 127.464844 147.449219 134.394531 140.816406 C 143.042969 132.550781 157.007812 118.570312 157.414062 115.726562 C 158.097656 110.972656 156.273438 108.027344 153.570312 101.921875 C 151.429688 97.113281 120.253906 66.550781 107.078125 53.78125 C 102.308594 49.148438 95.902344 46.414062 89.253906 46.640625 C 87.0625 46.726562 84.148438 48.34375 83.273438 49.394531 Z M 83.273438 49.394531 " fill-opacity="1" fill-rule="nonzero"/></g></svg>