<svg xmlns="http://www.w3.org/2000/svg" xmlns:xlink="http://www.w3.org/1999/xlink" width="500" zoomAndPan="magnify" viewBox="0 0 375 374.999991" height="500" preserveAspectRatio="xMidYMid meet" version="1.0"><defs><clipPath id="4f220b8083"><path d="M 81.136719 37.5 L 294 37.5 L 294 337.5 L 81.136719 337.5 Z M 81.136719 37.5 " clip-rule="nonzero"/></clipPath></defs><g clip-path="url(#4f220b8083)"><path fill="#ffffff" d="M 187.527344 37.5 C 128.949219 37.5 81.292969 85.15625 81.292969 143.734375 C 81.292969 166.132812 86.65625 190.210938 97.234375 215.300781 C 105.578125 235.09375 117.183594 255.589844 131.722656 276.21875 C 156.371094 311.1875 180.695312 334.230469 181.71875 335.195312 C 183.351562 336.734375 185.441406 337.5 187.527344 337.5 C 189.667969 337.5 191.808594 336.691406 193.453125 335.082031 C 194.472656 334.082031 218.746094 310.199219 243.359375 274.828125 C 276.804688 226.773438 293.761719 182.667969 293.761719 143.734375 C 293.761719 85.15625 246.105469 37.5 187.527344 37.5 Z M 187.527344 180.179688 C 163.410156 180.179688 143.789062 160.558594 143.789062 136.441406 C 143.789062 112.324219 163.410156 92.703125 187.527344 92.703125 C 211.644531 92.703125 231.265625 112.324219 231.265625 136.441406 C 231.265625 160.558594 211.644531 180.179688 187.527344 180.179688 Z M 187.527344 180.179688 " fill-opacity="1" fill-rule="nonzero"/></g></svg>