<svg xmlns="http://www.w3.org/2000/svg" xmlns:xlink="http://www.w3.org/1999/xlink" width="500" zoomAndPan="magnify" viewBox="0 0 375 374.999991" height="500" preserveAspectRatio="xMidYMid meet" version="1.0"><defs><clipPath id="b8e32f319d"><path d="M 116.589844 37.5 L 258.339844 37.5 L 258.339844 337.5 L 116.589844 337.5 Z M 116.589844 37.5 " clip-rule="nonzero"/></clipPath></defs><g clip-path="url(#b8e32f319d)"><path fill="#ffffff" d="M 225.640625 87.214844 L 258.339844 87.214844 L 258.339844 37.890625 L 216.582031 37.890625 L 216.582031 38.078125 C 161.683594 40.09375 150.363281 70.855469 149.417969 103.382812 L 149.292969 103.382812 L 149.292969 137.609375 L 116.589844 137.609375 L 116.589844 186.996094 L 149.292969 186.996094 L 149.292969 337.109375 L 207.96875 337.109375 L 207.96875 186.996094 L 250.039062 186.996094 L 258.339844 137.609375 L 207.96875 137.609375 L 207.96875 106.96875 C 207.96875 96.085938 215.261719 87.214844 225.640625 87.214844 Z M 225.640625 87.214844 " fill-opacity="1" fill-rule="nonzero"/></g></svg>